<svg xmlns="http://www.w3.org/2000/svg" width="220" height="72.422" viewBox="0 0 220 72.422">
  <g id="Grupo_6907" data-name="Grupo 6907" transform="translate(-982 -67)">
    <circle id="Elipse_1" data-name="Elipse 1" cx="2.583" cy="2.583" r="2.583" transform="translate(1135.985 82.91)" fill="#00acae"/>
    <circle id="Elipse_2" data-name="Elipse 2" cx="2.583" cy="2.583" r="2.583" transform="translate(1151.684 67.413)" fill="#c0e338"/>
    <circle id="Elipse_3" data-name="Elipse 3" cx="2.583" cy="2.583" r="2.583" transform="translate(1164.401 83.111)" fill="#b94fa8"/>
    <circle id="Elipse_4" data-name="Elipse 4" cx="2.583" cy="2.583" r="2.583" transform="translate(1180.298 67.413)" fill="#ff1a6e"/>
    <circle id="Elipse_5" data-name="Elipse 5" cx="2.583" cy="2.583" r="2.583" transform="translate(1196.394 83.111)" fill="#2e3192"/>
    <path id="Trazado_2" data-name="Trazado 2" d="M347.168,101.214a2.583,2.583,0,1,1-2.583-2.583A2.583,2.583,0,0,1,347.168,101.214Z" transform="translate(837.502 15.479)" fill="#ff5e23" fill-rule="evenodd"/>
    <path id="Trazado_3" data-name="Trazado 3" d="M362.549,132.619a2.583,2.583,0,1,1-2.583-2.583A2.584,2.584,0,0,1,362.549,132.619Z" transform="translate(831.659 3.548)" fill="#ffe731" fill-rule="evenodd"/>
    <g id="Grupo_6878" data-name="Grupo 6878" transform="translate(982 67)">
      <path id="Trazado_4" data-name="Trazado 4" d="M82.5,120.821h3.473v-.881H83.483V118.2h2.332v-.881H83.483v-1.47h2.493v-.881H82.5Zm54.24-2.58.471-1.556c.081-.285.13-.589.2-.893h.062a8.134,8.134,0,0,0,.192.893l.459,1.556Zm-.074-3.187-1.68,5.686h1.067l.5-1.618h1.78l.477,1.618h1.1l-1.68-5.686Zm-56.386,2.028c0,.955-.409,1.16-1.209,1.16-.18,0-.36,0-.533-.012v-2.375h.136c1.06,0,1.6,0,1.606,1.122Zm-1.259-2.108c-.477,0-.967.006-1.494.037v5.73H78.54v-1.625c.192.006.366.006.546.006,1.141,0,2.214-.273,2.214-2.04v-.105C81.294,115.234,80.227,114.974,79.024,114.974Zm54.178,2.108c0,.955-.4,1.16-1.209,1.16-.174,0-.353,0-.527-.012v-2.375h.13c1.067,0,1.6,0,1.606,1.122Zm-1.253-2.108c-.477,0-.967.006-1.5.037v5.73h1.017v-1.625c.192.006.366.006.539.006,1.147,0,2.22-.273,2.22-2.04v-.105C134.219,115.234,133.153,114.974,131.95,114.974Zm-60.262,3.268.471-1.556c.081-.285.13-.589.192-.893h.068a6.916,6.916,0,0,0,.2.893l.459,1.556Zm-.074-3.187-1.674,5.686h1.067l.49-1.618h1.786l.477,1.618h1.091l-1.674-5.686Zm-15.019,3.169c0,1.284-.465,1.718-1.166,1.718s-1.16-.434-1.16-1.718v-.657c0-1.277.453-1.711,1.16-1.711s1.166.434,1.166,1.711Zm-1.166-3.249c-1.315,0-2.146.744-2.146,2.58v.67c0,1.848.825,2.6,2.146,2.6s2.146-.75,2.146-2.6v-.67C57.575,115.718,56.737,114.974,55.429,114.974Zm91.794,3.268.465-1.556c.081-.285.13-.589.2-.893h.062c.056.3.118.608.192.893l.465,1.556Zm-.081-3.187-1.68,5.686h1.067l.5-1.618h1.78l.477,1.618h1.1l-1.68-5.686Zm-85.611,1.991c0,.936-.372,1.2-1.222,1.2-.174,0-.341,0-.515-.012v-2.375c1.209,0,1.736.012,1.736,1.135Zm1.023-.006v-.074c0-1.724-1.091-1.991-2.282-1.991-.5,0-1,.012-1.488.037v5.73h1.011v-1.618h.459c.149,0,.3,0,.434-.006l1.116,1.625h1.1L61.6,118.893C62.188,118.626,62.554,118.13,62.554,117.038Zm4.266.36c-.124.248-.26.521-.366.781h-.019c-.112-.248-.242-.527-.36-.763l-1.191-2.363H63.745v5.686h1.011v-3c0-.384-.012-.657-.025-1.036h.012c.143.285.26.577.4.837l.862,1.7h.887l.881-1.7c.13-.267.273-.539.4-.837H68.2c-.031.378-.043.657-.043,1.036v3h1.017v-5.686H68.03Zm76.856-.353c0,.936-.372,1.2-1.222,1.2-.174,0-.341,0-.515-.012v-2.375c1.209,0,1.736.012,1.736,1.135Zm1.023-.006v-.074c0-1.724-1.091-1.991-2.282-1.991-.5,0-1,.012-1.494.037v5.73h1.017v-1.618h.459c.149,0,.3,0,.434-.006l1.116,1.625h1.1l-1.3-1.848C144.333,118.626,144.7,118.13,144.7,117.038Zm-41.8,1.215c0,1.277-.49,1.687-1.594,1.687H100.6v-4.086h.707c1.1,0,1.594.378,1.594,1.656Zm-1.569-3.28c-.757,0-1.079.012-1.749.043v5.761c.67.031,1.048.043,1.749.043,1.873,0,2.561-.85,2.561-2.567v-.744C103.89,115.8,103.165,114.974,101.329,114.974Zm3.776,5.767h.98v-5.364h-.98Zm19.508-2.5.471-1.556c.081-.285.13-.589.192-.893h.068a8.127,8.127,0,0,0,.192.893l.465,1.556Zm-.074-3.187-1.68,5.686h1.067l.5-1.618h1.78l.478,1.618h1.1l-1.68-5.686Zm-19.539,0h.893L107.065,114H105.93Zm4.769,2.418-.744-.31c-.552-.223-.707-.4-.707-.738,0-.453.353-.57.992-.57.577,0,1.116.062,1.519.1v-.8a6.666,6.666,0,0,0-1.563-.18c-1.3,0-1.972.391-1.972,1.476a1.674,1.674,0,0,0,1.259,1.637l.831.353c.546.229.682.44.682.8,0,.508-.316.695-.98.695a14.694,14.694,0,0,1-1.662-.087v.8a8.342,8.342,0,0,0,1.736.174c1.215,0,1.9-.57,1.9-1.587C111.058,118.279,110.686,117.876,109.769,117.473Zm-17.89,3.268h.98v-5.686h-.98Zm-2.232-3.7c0,.936-.372,1.2-1.222,1.2-.174,0-.341,0-.515-.012v-2.375c1.215,0,1.736.012,1.736,1.135Zm1.029-.006v-.074c0-1.724-1.1-1.991-2.288-1.991-.5,0-.992.012-1.494.037v5.73H87.91v-1.618h.459c.155,0,.3,0,.434-.006l1.116,1.625h1.11l-1.308-1.848C90.3,118.626,90.676,118.13,90.676,117.038Zm28.215.471v.769c0,2.015.881,2.542,2.3,2.542a8.464,8.464,0,0,0,1.4-.136v-.812c-.372.031-.893.068-1.333.068-.93,0-1.389-.347-1.389-1.662v-.769c0-1.315.459-1.656,1.389-1.656.44,0,.961.037,1.333.068v-.8a7.683,7.683,0,0,0-1.4-.149C119.771,114.974,118.89,115.482,118.89,117.51Zm-2.208,3.231h.986v-5.686h-.986Zm-19.3-2.518c0,1.284-.459,1.718-1.166,1.718s-1.153-.434-1.153-1.718v-.657c0-1.277.453-1.711,1.153-1.711s1.166.434,1.166,1.711Zm-1.166-3.249c-1.315,0-2.139.744-2.139,2.58v.67c0,1.848.819,2.6,2.139,2.6s2.152-.75,2.152-2.6v-.67C98.371,115.718,97.534,114.974,96.219,114.974Zm69.228,2.5-.744-.31c-.546-.223-.707-.4-.707-.738,0-.453.353-.57,1-.57.57,0,1.11.062,1.513.1v-.8a6.619,6.619,0,0,0-1.563-.18c-1.3,0-1.972.391-1.972,1.476a1.674,1.674,0,0,0,1.259,1.637l.831.353c.546.229.682.44.682.8,0,.508-.316.695-.98.695a14.78,14.78,0,0,1-1.662-.087v.8a8.394,8.394,0,0,0,1.736.174c1.222,0,1.9-.57,1.9-1.587C166.738,118.279,166.372,117.876,165.448,117.473Zm12.185-.074c-.13.248-.254.521-.366.781h-.019c-.112-.248-.236-.527-.36-.763l-1.191-2.363h-1.141v5.686h1.017v-3c0-.384-.025-.657-.037-1.036h.012c.149.285.267.577.4.837l.868,1.7h.887l.874-1.7c.136-.267.285-.539.409-.837H179c-.019.378-.037.657-.037,1.036v3h1.017v-5.686h-1.147Zm6.821-3.4h-1.141l-.905.974H181.18v5.848h3.479v-.881h-2.487V118.2H184.5v-.881h-2.325v-1.47h2.487v-.881h-1.3Zm3.876,3.045c0,.936-.372,1.2-1.222,1.2-.174,0-.341,0-.515-.012v-2.375c1.209,0,1.736.012,1.736,1.135Zm1.023-.006v-.074c0-1.724-1.091-1.991-2.282-1.991q-.744,0-1.488.037v5.73h1.011v-1.618h.459c.155,0,.3,0,.434-.006l1.116,1.625h1.1l-1.308-1.848C188.987,118.626,189.353,118.13,189.353,117.038Zm-35.3-1.984h-.992v5.767h3.342v-.881h-2.35Zm51.084,2.418-.744-.31c-.546-.223-.7-.4-.7-.738,0-.453.347-.57.992-.57.583,0,1.122.062,1.513.1v-.8a6.554,6.554,0,0,0-1.556-.18c-1.308,0-1.978.391-1.978,1.476a1.674,1.674,0,0,0,1.259,1.637l.831.353c.546.229.682.44.682.8,0,.508-.316.695-.98.695a14.779,14.779,0,0,1-1.662-.087v.8a8.413,8.413,0,0,0,1.742.174c1.222,0,1.891-.57,1.891-1.587C206.43,118.279,206.071,117.876,205.14,117.473Zm-14.585,3.268h.986v-5.686h-.986Zm2.208-3.231v.769c0,2.015.887,2.542,2.307,2.542a8.308,8.308,0,0,0,1.4-.136v-.812c-.366.031-.9.068-1.327.068-.936,0-1.389-.347-1.389-1.662v-.769c0-1.315.453-1.656,1.389-1.656.428,0,.961.037,1.327.068v-.8a7.542,7.542,0,0,0-1.4-.149C193.65,114.974,192.763,115.482,192.763,117.51Zm5.724.732.471-1.556c.081-.285.136-.589.192-.893h.068a6.919,6.919,0,0,0,.2.893l.459,1.556Zm-.074-3.187-1.674,5.686h1.06l.5-1.618h1.786l.477,1.618h1.091l-1.674-5.686Zm-87.248.8h1.662v4.886h.986v-4.886h1.649v-.881h-4.3Zm-73.321,0H39.5v4.886h.98v-4.886h1.662v-.881h-4.3Zm11.025,4.886h.992V118.2h2.325v-.881H49.861v-1.47h2.48v-.881H48.868Zm109.926-2.5.471-1.556c.081-.285.13-.589.192-.893h.074a6.008,6.008,0,0,0,.192.893l.459,1.556Zm-.074-3.187-1.674,5.686h1.067l.49-1.618h1.786l.477,1.618h1.091l-1.674-5.686ZM44.677,118.241l.471-1.556c.074-.285.13-.589.192-.893H45.4a8.139,8.139,0,0,0,.2.893l.459,1.556Zm-.074-3.187-1.68,5.686h1.067l.5-1.618h1.78l.477,1.618h1.1l-1.68-5.686Zm-18.349,2.028c0,.955-.4,1.16-1.209,1.16-.18,0-.36,0-.533-.012v-2.375h.136c1.06,0,1.6,0,1.606,1.122Zm-1.259-2.108c-.477,0-.967.006-1.494.037v5.73h1.011v-1.625c.192.006.366.006.546.006,1.141,0,2.214-.273,2.214-2.04v-.105C27.264,115.234,26.2,114.974,24.994,114.974Zm9.209,3.268.471-1.556c.074-.285.13-.589.192-.893h.062c.056.3.112.608.192.893l.465,1.556Zm-.074-3.187-1.68,5.686h1.06l.5-1.618h1.78l.477,1.618h1.1l-1.68-5.686Zm-4.669,0h-.986v5.767h3.336v-.881h-2.35Zm140.912,3.187.471-1.556c.081-.285.136-.589.192-.893h.068c.056.3.112.608.192.893l.465,1.556Zm-.068-3.187-1.687,5.686h1.067l.5-1.618h1.78l.477,1.618h1.1l-1.68-5.686Z" transform="translate(-23.5 -57.36)" fill-rule="evenodd"/>
      <path id="Trazado_5" data-name="Trazado 5" d="M334.385,43.229a1.873,1.873,0,1,1,1.873-1.873A1.871,1.871,0,0,1,334.385,43.229Zm-7.218,45.627a3.044,3.044,0,0,0-1.011.186L319.329,75.27a3.089,3.089,0,0,0,.4-5.227l13.245-25.92.112.056Zm1.885,3.113A1.873,1.873,0,1,1,327.18,90.1,1.871,1.871,0,0,1,329.052,91.969Zm-13.047-19.44a1.873,1.873,0,1,1,1.873,1.873A1.876,1.876,0,0,1,316.005,72.529ZM304.254,43.948a3.149,3.149,0,0,0,1.327-1.972h25.753a3.067,3.067,0,0,0,.657,1.352L318.61,69.509a2.748,2.748,0,0,0-1.463,0Zm-3.6-2.592a1.876,1.876,0,1,1,1.873,1.873A1.875,1.875,0,0,1,300.651,41.356Zm-26.6,1.873a1.873,1.873,0,1,1,1.873-1.873A1.876,1.876,0,0,1,274.049,43.229ZM289.893,23.9a1.876,1.876,0,0,1,1.879,1.873,1.857,1.857,0,0,1-.316,1.036l-.831.664.019.019a1.873,1.873,0,1,1-.75-3.59Zm28.556,0a1.873,1.873,0,1,1-1.873,1.873A1.871,1.871,0,0,1,318.448,23.9ZM276.461,39.415l11.273-11.41a3.063,3.063,0,0,0,3.69.465l8.725,10.9a3.1,3.1,0,0,0-.676,1.37H277.1A3.022,3.022,0,0,0,276.461,39.415Zm24.655-.825-8.756-10.939a3.14,3.14,0,0,0,.589-1.259H315.4a3.11,3.11,0,0,0,.57,1.24L304.112,38.69a3.037,3.037,0,0,0-3-.1Zm30.218,2.146H305.581a3.109,3.109,0,0,0-.546-1.209L316.9,28.458a3.07,3.07,0,0,0,3.293-.105L331.88,39.521A3.087,3.087,0,0,0,331.334,40.736Zm3.051-2.493a3.066,3.066,0,0,0-1.581.446L321.059,27.466a3.112,3.112,0,1,0-5.662-2.313H292.95a3.116,3.116,0,1,0-5.928,1.817L275.506,38.621a3.07,3.07,0,0,0-1.457-.378,3.113,3.113,0,1,0,3.051,3.733h22.373a3.124,3.124,0,0,0,3.051,2.493,2.934,2.934,0,0,0,.577-.056l12.923,25.623a3.108,3.108,0,0,0,1.854,5.606c.081,0,.161-.019.242-.025l6.97,14.058a3.1,3.1,0,1,0,3.293-.577L334.3,44.463l.087.006a3.113,3.113,0,1,0,0-6.226Z" transform="translate(-117.498 -22.66)" fill-rule="evenodd"/>
      <g id="Grupo_6877" data-name="Grupo 6877" transform="translate(0.205 28.568)">
        <path id="Trazado_6" data-name="Trazado 6" d="M175.3,76.153a30.982,30.982,0,0,0,.682-3.473h.211c.186,1.16.415,2.381.688,3.473l1.612,6h-4.769Zm3.931,9.965,1.581,5.68h5.841l-6.232-22.5h-8.638l-6.17,22.5h5.717l1.612-5.68ZM166.268,69.269H147.962v3.962h6.406V91.8h5.494V73.232h6.406ZM106.6,91.8V69.3h-4.992V80.27c0,1.383.031,2.821.093,3.9h-.062c-.446-1.017-1.042-2.245-1.581-3.225L93.592,69.3H87.973V91.8h4.992V80.822c0-1.228-.062-2.487-.093-3.69h.062c.446,1.017,1.011,2.152,1.55,3.138L100.9,91.8Zm32.605.558a34.322,34.322,0,0,0,5.99-.614v-4.08c-1.494.124-3.609.242-5.426.242-3.305,0-4.886-1.147-4.886-6.083v-2.6c0-4.905,1.581-6.021,4.855-6.021,1.817,0,3.962.149,5.457.273V69.381a31.817,31.817,0,0,0-5.99-.645c-6.269,0-9.816,2.338-9.816,10.48v2.6C129.39,89.962,132.937,92.356,139.206,92.356Zm54.681-10.61,3.032,1.414c1.947.918,2.443,1.439,2.443,2.728,0,1.724-.974,2.487-3.305,2.487-2.766-.105-4.818-.316-6.728-.471v3.721a35.59,35.59,0,0,0,7.311.732c5.122,0,8.2-2.183,8.216-6.852-.019-3.559-1.724-5.364-5.345-6.92l-2.927-1.321c-1.891-.862-2.338-1.321-2.338-2.487,0-1.569,1.11-2.028,3.225-2.028,2.332,0,4.242.186,6.269.372V69.487a29.808,29.808,0,0,0-6.548-.757c-5.389,0-8.427,1.755-8.427,6.232C188.765,78.738,190.731,80.363,193.887,81.746ZM69.73,80.822c0-1.228-.056-2.487-.087-3.69H69.7c.446,1.017,1.017,2.152,1.55,3.138L77.661,91.8h5.7V69.3H78.38V80.27c0,1.383.031,2.821.087,3.9h-.056c-.453-1.017-1.048-2.245-1.581-3.225L70.356,69.3H64.744V91.8H69.73Zm56.479,7.044H116.7V82.533h8.88V78.565H116.7V73.232h9.506V69.269h-15V91.829h15V87.866ZM47.506,79.4c0-4.688,1.488-6.2,4.062-6.2,2.629,0,4.086,1.513,4.086,6.2v2.276c0,4.781-1.519,6.232-4.086,6.232-2.542,0-4.062-1.451-4.062-6.232Zm4.062,12.96c5.668,0,9.574-2.852,9.574-10.66V79.4c0-7.832-3.938-10.66-9.574-10.66-5.612,0-9.55,2.828-9.55,10.66v2.3C42.018,89.5,45.924,92.356,51.567,92.356Zm153.289-6.889v0ZM33.646,92.356a34.322,34.322,0,0,0,5.99-.614v-4.08c-1.488.124-3.609.242-5.426.242-3.305,0-4.886-1.147-4.886-6.083v-2.6c0-4.905,1.581-6.021,4.855-6.021,1.823,0,3.969.149,5.457.273V69.381a31.817,31.817,0,0,0-5.99-.645c-6.269,0-9.816,2.338-9.816,10.48v2.6C23.83,89.962,27.377,92.356,33.646,92.356Z" transform="translate(-23.83 -68.73)" fill-rule="evenodd"/>
      </g>
    </g>
  </g>
</svg>
