<?xml version="1.0" encoding="utf-8"?>
<!-- Generator: Adobe Illustrator 24.3.0, SVG Export Plug-In . SVG Version: 6.00 Build 0)  -->
<svg version="1.1" xmlns="http://www.w3.org/2000/svg" xmlns:xlink="http://www.w3.org/1999/xlink" x="0px" y="0px"
	 viewBox="0 0 513.85 104.47" style="enable-background:new 0 0 513.85 104.47;" xml:space="preserve">
<style type="text/css">
	.st0{fill-rule:evenodd;clip-rule:evenodd;fill:#010506;}
	.st1{fill-rule:evenodd;clip-rule:evenodd;fill:#010506;stroke:#010506;stroke-width:0.2835;stroke-miterlimit:22.9256;}
</style>
<g id="Capa_1">
	<g>
		<path class="st0" d="M42.38,0.36H2.17v13.61h28.67L42.38,0.36L42.38,0.36z M60.43,12.94V0.36h-9.28L0,60.48v12.06h9.9L60.43,12.94
			L60.43,12.94z M61.04,72.54v-13.3H29.8l-11.14,13.3H61.04z"/>
		<path class="st0" d="M187.27,72.67V38.61c0-2.75-0.33-5.45-0.98-8.1c-0.65-2.65-1.69-5.02-3.1-7.12c-1.41-2.1-3.22-3.78-5.42-5.06
			c-2.2-1.27-4.89-1.91-8.05-1.91c-1.86,0-3.47,0.31-4.85,0.93s-2.36,1.2-2.94,1.75c-0.58,0.55-0.91,0.86-0.98,0.93h-0.1v12.49
			c0.07-0.07,0.41-0.31,1.03-0.72c0.62-0.41,1.31-0.86,2.06-1.34c0.76-0.48,1.2-0.72,1.34-0.72c1.38,0,2.46,0.28,3.25,0.83
			c0.79,0.55,1.39,1.27,1.81,2.17c0.41,0.89,0.67,1.93,0.77,3.1c0.1,1.17,0.15,2.37,0.15,3.61v33.24H187.27L187.27,72.67z
			 M152.79,72.67V17.35h-15.9v55.32H152.79z"/>
		<path class="st0" d="M249.23,72.59l-0.02-30.97c-0.24-4.47-0.4-8.33-1.19-11.56c-0.79-3.23-2.13-5.88-4.03-7.95
			c-1.89-2.06-4.4-3.6-7.53-4.59c-3.13-1-7-1.5-11.61-1.5v-0.1c-2.41,0-4.87,0.26-7.38,0.77c-2.51,0.52-4.85,1.36-7.02,2.53
			c-2.17,1.17-4.03,2.68-5.57,4.54c-1.55,1.86-2.6,4.13-3.15,6.81c-0.14,0.76-0.24,1.51-0.31,2.27c-0.07,0.76-0.17,1.51-0.31,2.27
			h14.66c0.07-2.41,1-4.18,2.79-5.32c1.79-1.14,3.78-1.7,5.99-1.7c2.61,0,4.73,0.52,6.35,1.55c1.62,1.03,2.43,2.99,2.43,5.88v28.8
			l0.01,8.26L249.23,72.59L249.23,72.59z M226.09,72.34c-2.52,1.96-4.73,2.1-8.88,2.1c-2.61,0-5.09-0.41-7.43-1.24
			c-2.34-0.83-4.37-2.01-6.09-3.56c-1.72-1.55-3.08-3.41-4.08-5.57c-1-2.17-1.5-4.63-1.5-7.38c0-3.72,0.72-6.66,2.17-8.83
			c1.45-2.17,3.3-3.87,5.57-5.11c2.27-1.24,4.85-2.15,7.74-2.74c2.89-0.59,5.78-1.15,8.67-1.7c0.69-0.14,1.12-0.22,1.29-0.26
			c0.17-0.03,0.29-0.05,0.36-0.05c0.07,0,0.17,0,0.31,0c0.21,0,0.65-0.07,1.34-0.21v10.84c-1.24,0.21-2.53,0.4-3.87,0.57
			s-2.58,0.5-3.72,0.98c-1.14,0.48-2.08,1.19-2.84,2.12c-0.76,0.93-1.14,2.25-1.14,3.97c0,1.86,0.77,3.27,2.32,4.23
			c1.55,0.96,3.15,1.45,4.8,1.45c2-0.07,3.34-0.28,4.03-0.62c0.69-0.34,1.03-0.52,1.03-0.52L226.09,72.34z"/>
		<path class="st0" d="M322.11,36.25c-0.03-4.27-0.53-8.31-1.6-12.13c-1.07-3.82-2.48-7.37-4.6-10.38
			c-6.68-9.47-17.98-14.68-31-13.6l-0.06,13.82c3.2,0,8.52,0.93,11.25,2.37c2.2,1.17,3.94,2.72,5.21,4.64s2.17,4.2,2.68,6.81
			c0.52,2.61,0.77,5.44,0.77,8.46c0,12.97,1.92,23.12-15.28,23.12c-0.76,0-1.53-0.02-2.32-0.05c-0.79-0.03-1.57-0.05-2.32-0.05
			v13.42c4.68-0.07,8.72-0.26,12.13-0.57C315.4,70.44,322.23,57.1,322.11,36.25L322.11,36.25z M277,72.69V0.43h-16.1v72.25H277z"/>
		<path class="st0" d="M389.96,44.23c0-8.46-2.06-15.26-6.19-20.39c-4.13-5.13-10.36-7.93-18.68-8.41v12.59
			c2.27,0.41,3.99,1.12,5.16,2.12c1.17,1,2.01,2.24,2.53,3.72c0.52,1.48,0.81,3.13,0.88,4.95c0.07,1.82,0.1,3.77,0.1,5.83
			c0,1.79-0.07,3.61-0.21,5.47c-0.14,1.86-0.48,3.58-1.03,5.16c-0.55,1.58-1.41,2.91-2.58,3.97s-2.79,1.74-4.85,2.01v12.8
			c0.89-0.14,1.75-0.24,2.58-0.31c0.83-0.07,1.65-0.17,2.48-0.31c3.51-0.69,6.52-1.94,9.03-3.77c2.51-1.82,4.58-4.04,6.19-6.66
			c1.62-2.61,2.79-5.54,3.51-8.77C389.6,51.01,389.96,47.67,389.96,44.23L389.96,44.23z M357.34,74.17v-12.8
			c-2.34-0.55-4.11-1.34-5.32-2.37c-1.2-1.03-2.06-2.27-2.58-3.72c-0.52-1.45-0.79-3.08-0.83-4.9c-0.03-1.82-0.05-3.84-0.05-6.04
			c0-1.86,0.07-3.7,0.21-5.52c0.14-1.82,0.48-3.49,1.03-5.01c0.55-1.51,1.43-2.77,2.63-3.77c1.2-1,2.84-1.63,4.9-1.91v-12.7
			c-4.13,0.14-7.76,0.98-10.89,2.53s-5.73,3.65-7.79,6.3c-2.06,2.65-3.61,5.73-4.64,9.24c-1.03,3.51-1.55,7.29-1.55,11.35
			c0,3.44,0.33,6.76,0.98,9.96c0.65,3.2,1.74,6.11,3.25,8.72c1.51,2.61,3.48,4.82,5.88,6.61c2.41,1.79,5.37,2.99,8.88,3.61
			c0.96,0.14,1.94,0.22,2.94,0.26S356.38,74.1,357.34,74.17z"/>
		<path class="st0" d="M453.9,36.44c-0.28-1.17-0.53-2.31-0.77-3.41c-0.24-1.1-0.57-2.2-0.98-3.3c-1.79-4.89-4.32-8.4-7.59-10.53
			c-3.27-2.13-7.35-3.37-12.23-3.72v12.9c1.38,0.28,2.41,0.64,3.1,1.08c0.69,0.45,1.22,1.02,1.6,1.7c0.38,0.69,0.64,1.53,0.77,2.53
			c0.14,1,0.34,2.15,0.62,3.46L453.9,36.44L453.9,36.44z M454.31,52.03l-15.48-0.62c-0.34,1.31-0.6,2.49-0.77,3.56
			c-0.17,1.07-0.45,2-0.83,2.79c-0.38,0.79-0.95,1.46-1.7,2.01c-0.76,0.55-1.82,0.93-3.2,1.14v13.21c3.65-0.28,6.69-0.93,9.13-1.96
			c2.44-1.03,4.49-2.46,6.14-4.28s2.99-4.04,4.03-6.66C452.66,58.6,453.55,55.54,454.31,52.03L454.31,52.03z M424.69,74.22V60.8
			c-2.06-0.55-3.61-1.36-4.64-2.43c-1.03-1.07-1.75-2.31-2.17-3.72c-0.41-1.41-0.62-2.98-0.62-4.7c0-1.79,0-3.65,0-5.57
			c0-1.72,0.02-3.46,0.05-5.21c0.03-1.75,0.26-3.37,0.67-4.85c0.41-1.48,1.12-2.75,2.12-3.82c1-1.07,2.49-1.74,4.49-2.01h0.1v-12.9
			c-4.33,0.28-8.02,1.2-11.04,2.79s-5.49,3.68-7.38,6.3c-1.89,2.61-3.27,5.68-4.13,9.19c-0.86,3.51-1.29,7.36-1.29,11.56
			c0,4.27,0.43,8.1,1.29,11.51c0.86,3.41,2.24,6.35,4.13,8.83c1.89,2.48,4.35,4.44,7.38,5.88
			C416.67,73.08,420.35,73.94,424.69,74.22z"/>
		<path class="st0" d="M512.41,34.32c-0.41-3.37-1.12-6.21-2.12-8.52c-1-2.31-2.31-4.18-3.92-5.63c-1.62-1.44-3.58-2.53-5.88-3.25
			c-2.31-0.72-5.04-1.26-8.21-1.6v0.1v11.77c1.03-0.14,1.88,0.02,2.53,0.46c0.65,0.45,1.17,1.07,1.55,1.86
			c0.38,0.79,0.64,1.69,0.77,2.68c0.14,1,0.24,1.98,0.31,2.94L512.41,34.32L512.41,34.32z M513.85,54.65c0-3.44-0.83-6.19-2.48-8.26
			c-1.65-2.06-3.73-3.72-6.24-4.95c-2.51-1.24-5.23-2.18-8.15-2.84c-2.92-0.65-5.64-1.27-8.15-1.86c-2.51-0.58-4.61-1.24-6.3-1.96
			c-1.69-0.72-2.53-1.81-2.53-3.25c0-1.79,0.4-2.99,1.19-3.61c0.79-0.62,1.88-0.93,3.25-0.93V15.43c-2.96,0.14-5.66,0.55-8.1,1.24
			c-2.44,0.69-4.52,1.75-6.24,3.2c-1.72,1.45-3.04,3.32-3.97,5.63c-0.93,2.31-1.39,5.14-1.39,8.52c0,3.23,0.83,5.85,2.48,7.84
			c1.65,2,3.7,3.61,6.14,4.85c2.44,1.24,5.09,2.18,7.95,2.84c2.86,0.65,5.51,1.29,7.95,1.91c2.44,0.62,4.49,1.32,6.14,2.12
			c1.65,0.79,2.48,1.88,2.48,3.25c0,2.2-0.52,3.68-1.55,4.44c-1.03,0.76-2.44,1.17-4.23,1.24l0.1,11.66
			c3.17-0.07,6.09-0.43,8.77-1.08c2.68-0.65,4.97-1.74,6.86-3.25c1.89-1.51,3.37-3.51,4.44-5.99
			C513.32,61.36,513.85,58.3,513.85,54.65L513.85,54.65z M484.43,74.16V62.29c-2.61-0.48-4.28-1.39-5.01-2.74
			c-0.72-1.34-1.12-3.46-1.19-6.35l-15.17,0.52c0.07,3.65,0.64,6.69,1.7,9.13c1.07,2.44,2.51,4.46,4.34,6.04
			c1.82,1.58,4.03,2.77,6.61,3.56C478.29,73.25,481.2,73.81,484.43,74.16z"/>
		<path class="st1" d="M106.51,73.47l-11.58-16.9l-13.38,12.9l-5.05-47.48c-6.22,6.6-8.9,16.11-7.73,28.89
			c0.72,7.88,3.21,13.61,7.42,17.32C83.54,74.67,94.02,75.76,106.51,73.47z"/>
		<path class="st1" d="M79.99,19.21l42.78,22.01l-17.01,7.9l12.17,18.23c5.95-5.75,8.99-14.45,7.9-27.23
			c-1-11.68-6.36-20.22-16.54-23.25C97.06,13.22,86.94,14.77,79.99,19.21z"/>
		<path class="st0" d="M150.35,91.86c0-1.03-0.09-1.92-0.28-2.66c-0.19-0.75-0.49-1.35-0.9-1.83c-0.41-0.47-0.95-0.82-1.62-1.05
			c-0.67-0.23-1.48-0.35-2.44-0.35h-2.67v3.29h0.15c0.55,0,1.05,0,1.49,0c0.46,0,0.86,0.08,1.18,0.23c0.33,0.15,0.58,0.42,0.76,0.81
			c0.18,0.39,0.27,0.96,0.27,1.71c0,0.55-0.05,0.99-0.15,1.31c-0.1,0.33-0.26,0.57-0.48,0.75c-0.21,0.17-0.48,0.28-0.81,0.32
			c-0.33,0.04-0.7,0.06-1.13,0.06h-1.29v3.27h2.03c1.01,0,1.89-0.09,2.64-0.27c0.75-0.18,1.36-0.5,1.84-0.95
			c0.48-0.45,0.84-1.06,1.07-1.81C150.24,93.94,150.35,93,150.35,91.86L150.35,91.86z M140.48,103.98v-18h-4.04v18H140.48z"/>
		<path class="st0" d="M165.83,89.29v-3.34h-7.12v3.34H165.83L165.83,89.29z M165.17,96.11v-3.24h-6.45v3.24H165.17L165.17,96.11z
			 M166.01,103.98v-3.34h-7.3v3.34H166.01L166.01,103.98z M156.73,103.98V85.95h-4.01v18.03H156.73z"/>
		<path class="st0" d="M183.35,103.98c-0.29-0.48-0.54-0.96-0.73-1.43c-0.2-0.47-0.35-0.99-0.45-1.56
			c-0.09-0.45-0.16-0.94-0.23-1.49s-0.18-1.09-0.32-1.62c-0.15-0.53-0.36-1.01-0.63-1.44c-0.27-0.43-0.66-0.75-1.16-0.95
			c-0.09-0.03-0.17-0.07-0.26-0.1c-0.09-0.03-0.17-0.07-0.26-0.1c0.5,0,0.94-0.13,1.34-0.4c0.39-0.27,0.73-0.6,1.02-1.02
			c0.28-0.41,0.5-0.86,0.64-1.35s0.22-0.96,0.22-1.4c0-0.93-0.11-1.7-0.33-2.31c-0.22-0.62-0.52-1.12-0.9-1.5
			c-0.38-0.39-0.83-0.67-1.36-0.85c-0.53-0.18-1.1-0.31-1.7-0.39c-0.6-0.08-1.23-0.11-1.9-0.1c-0.67,0.01-1.34,0-2.01-0.01v3.42h0.1
			c0.31,0,0.62-0.01,0.94-0.03c0.32-0.02,0.64-0.03,0.96-0.03c0.36,0,0.68,0.02,0.96,0.06c0.28,0.04,0.52,0.13,0.71,0.27
			c0.19,0.14,0.33,0.35,0.42,0.63c0.09,0.28,0.14,0.66,0.14,1.14c0,0.6-0.04,1.08-0.12,1.43c-0.08,0.35-0.21,0.62-0.41,0.81
			c-0.2,0.19-0.45,0.31-0.77,0.37c-0.32,0.06-0.72,0.09-1.2,0.09c-0.29,0-0.58,0-0.86-0.01c-0.28-0.01-0.57-0.01-0.86-0.01
			l-0.05,3.24c0.22,0,0.38,0,0.46,0c0.1,0,0.18,0,0.23,0c0.07,0,0.15,0.01,0.23,0.03c0.09,0.02,0.24,0.03,0.46,0.05
			c0.6,0.07,1.05,0.23,1.36,0.48c0.31,0.25,0.53,0.55,0.67,0.91c0.14,0.36,0.23,0.76,0.27,1.21c0.04,0.45,0.11,0.9,0.19,1.36
			c0.09,0.46,0.21,0.91,0.36,1.34c0.15,0.43,0.33,0.85,0.54,1.26H183.35L183.35,103.98z M172.37,103.98V85.95h-4.04v18.03H172.37z"
			/>
		<rect x="186.43" y="85.98" class="st0" width="4.04" height="18"/>
		<path class="st0" d="M211.25,94.9c0-2.74-0.63-4.93-1.9-6.57c-1.27-1.64-3.27-2.58-6.02-2.82v3.45c0.86,0.09,1.53,0.31,2.02,0.68
			c0.49,0.37,0.86,0.84,1.11,1.4c0.25,0.57,0.4,1.2,0.46,1.9c0.06,0.7,0.09,1.43,0.09,2.19c0,0.79-0.04,1.5-0.13,2.13
			c-0.09,0.63-0.26,1.2-0.51,1.68c-0.26,0.49-0.63,0.9-1.11,1.22c-0.48,0.33-1.12,0.57-1.93,0.72v3.42h0.46
			c1.29,0,2.4-0.27,3.33-0.81c0.93-0.54,1.71-1.25,2.31-2.13s1.06-1.89,1.36-3.01C211.1,97.23,211.25,96.08,211.25,94.9L211.25,94.9
			z M201.37,100.86c-0.82-0.17-1.47-0.43-1.95-0.77c-0.48-0.34-0.85-0.77-1.11-1.27c-0.26-0.51-0.42-1.09-0.5-1.75
			c-0.08-0.66-0.12-1.38-0.12-2.17c0-0.72,0.04-1.41,0.13-2.08c0.09-0.67,0.26-1.27,0.53-1.81s0.64-0.99,1.12-1.36
			c0.48-0.37,1.11-0.6,1.9-0.68v-0.03v-3.42c-1.34,0.03-2.5,0.3-3.5,0.8s-1.82,1.17-2.47,2.01c-0.65,0.84-1.14,1.83-1.47,2.96
			c-0.33,1.13-0.49,2.34-0.49,3.63c0,1.08,0.12,2.13,0.35,3.15c0.23,1.02,0.6,1.95,1.09,2.79c0.5,0.84,1.14,1.56,1.93,2.15
			c0.79,0.59,1.74,0.99,2.85,1.2c0.27,0.05,0.55,0.08,0.82,0.09s0.56,0.01,0.85,0.01L201.37,100.86z"/>
		<path class="st0" d="M229.04,94.9c0-1.06-0.13-2.07-0.4-3.02c-0.27-0.95-0.66-1.8-1.18-2.56c-0.52-0.75-1.19-1.4-1.99-1.94
			c-0.81-0.54-1.75-0.93-2.83-1.17c-0.24-0.05-0.41-0.09-0.5-0.13c-0.09-0.03-0.18-0.06-0.26-0.08c-0.08-0.02-0.17-0.03-0.27-0.04
			c-0.1-0.01-0.27-0.01-0.51-0.01h-1.31h-0.03v3.39c0.17,0,0.27,0,0.31,0.01c0.03,0.01,0.05,0.01,0.05,0.01s0.02,0,0.05,0.01
			c0.03,0.01,0.14,0.02,0.31,0.04c0.84,0.05,1.53,0.22,2.08,0.51c0.55,0.29,0.98,0.68,1.3,1.16c0.32,0.48,0.54,1.05,0.67,1.7
			c0.13,0.65,0.19,1.35,0.19,2.11c0,0.94-0.01,1.77-0.03,2.49c-0.02,0.72-0.14,1.32-0.36,1.81c-0.22,0.49-0.6,0.85-1.12,1.09
			c-0.52,0.24-1.29,0.36-2.3,0.36c-0.19,0-0.38,0-0.58-0.01c-0.2-0.01-0.39-0.01-0.58-0.01v3.34c1.17-0.02,2.17-0.06,3.02-0.14
			c0.85-0.08,1.6-0.28,2.26-0.62c0.66-0.33,1.25-0.84,1.76-1.52c0.51-0.68,1.02-1.62,1.52-2.84c0.26-0.63,0.44-1.29,0.55-1.95
			C228.99,96.24,229.04,95.57,229.04,94.9L229.04,94.9z M217.81,103.98v-18h-4.01v18H217.81z"/>
		<rect x="232.39" y="85.98" class="st0" width="4.04" height="18"/>
		<path class="st0" d="M254.32,91.27c-0.05-0.24-0.09-0.49-0.12-0.75c-0.03-0.26-0.07-0.51-0.14-0.75
			c-0.36-1.35-1.04-2.37-2.03-3.03s-2.17-1.05-3.52-1.13l-0.36-0.03v3.29c0.46,0.05,0.82,0.13,1.08,0.24
			c0.26,0.11,0.46,0.27,0.6,0.48c0.15,0.21,0.25,0.47,0.31,0.8c0.06,0.33,0.12,0.72,0.17,1.18L254.32,91.27L254.32,91.27z
			 M254.6,98.96c0-0.99-0.15-1.83-0.45-2.49c-0.3-0.67-0.7-1.22-1.2-1.66c-0.5-0.44-1.06-0.78-1.7-1.03
			c-0.63-0.25-1.28-0.45-1.94-0.62c-0.66-0.16-1.31-0.3-1.94-0.41c-0.63-0.11-1.2-0.25-1.7-0.42c-0.5-0.17-0.9-0.39-1.21-0.66
			c-0.31-0.27-0.46-0.63-0.46-1.09c0-0.36,0.06-0.66,0.18-0.89c0.12-0.23,0.28-0.41,0.49-0.54c0.21-0.13,0.44-0.21,0.69-0.26
			c0.26-0.04,0.53-0.06,0.82-0.06v-3.24h-0.15c-0.87,0-1.69,0.1-2.44,0.3c-0.75,0.2-1.41,0.51-1.95,0.94
			c-0.55,0.43-0.98,0.99-1.29,1.68c-0.31,0.69-0.46,1.54-0.46,2.53c0,0.89,0.15,1.63,0.45,2.22c0.3,0.59,0.7,1.08,1.2,1.47
			c0.5,0.39,1.06,0.69,1.7,0.93c0.63,0.23,1.28,0.43,1.94,0.59c0.66,0.16,1.31,0.31,1.94,0.45c0.63,0.14,1.2,0.3,1.7,0.49
			c0.5,0.19,0.9,0.43,1.2,0.73c0.3,0.3,0.45,0.7,0.45,1.2c0,0.36-0.06,0.66-0.19,0.9c-0.13,0.24-0.3,0.43-0.53,0.58
			c-0.22,0.15-0.47,0.25-0.75,0.32c-0.27,0.07-0.56,0.11-0.85,0.13v3.37c0.24-0.02,0.45-0.03,0.63-0.05
			c0.18-0.02,0.35-0.04,0.51-0.06c0.16-0.03,0.33-0.06,0.5-0.1c0.17-0.04,0.38-0.1,0.62-0.17c0.57-0.15,1.11-0.39,1.62-0.71
			c0.51-0.32,0.96-0.69,1.34-1.13c0.38-0.44,0.68-0.93,0.9-1.48C254.49,100.16,254.6,99.58,254.6,98.96L254.6,98.96z M246.2,104.47
			l-0.03-3.39c-0.57-0.05-1.01-0.13-1.32-0.23c-0.32-0.1-0.56-0.27-0.73-0.49c-0.17-0.22-0.31-0.51-0.41-0.87
			c-0.1-0.36-0.22-0.82-0.36-1.39l-4.04,0.21c0.05,1.87,0.51,3.3,1.36,4.29c0.86,0.99,2.18,1.59,3.96,1.77
			c0.27,0.03,0.54,0.06,0.8,0.06C245.68,104.44,245.94,104.45,246.2,104.47z"/>
		<path class="st0" d="M275.43,103.98v-18h-3.75v18H275.43L275.43,103.98z M269.98,94.08v-8.1h-0.31c-0.6,2.3-1.2,4.57-1.81,6.83
			c-0.61,2.25-1.14,4.55-1.58,6.88c-0.5-2.33-1.05-4.62-1.67-6.88c-0.62-2.25-1.23-4.53-1.85-6.83h-0.18v8.25
			c0,0.07,0.03,0.2,0.08,0.4c0.05,0.2,0.11,0.4,0.18,0.62c0.07,0.21,0.13,0.42,0.19,0.63c0.06,0.21,0.1,0.36,0.12,0.46l1.11,7.64
			h4.06l1.11-7.79c0.02-0.1,0.06-0.26,0.12-0.46c0.06-0.21,0.12-0.42,0.19-0.63c0.07-0.21,0.13-0.42,0.18-0.62
			C269.96,94.28,269.98,94.14,269.98,94.08L269.98,94.08z M260.9,103.98v-18h-3.78v18H260.9z"/>
		<path class="st0" d="M295.85,94.9c0-2.74-0.63-4.93-1.9-6.57c-1.27-1.64-3.27-2.58-6.02-2.82v3.45c0.86,0.09,1.53,0.31,2.02,0.68
			c0.49,0.37,0.86,0.84,1.11,1.4c0.25,0.57,0.4,1.2,0.46,1.9c0.06,0.7,0.09,1.43,0.09,2.19c0,0.79-0.04,1.5-0.13,2.13
			c-0.09,0.63-0.26,1.2-0.51,1.68c-0.26,0.49-0.63,0.9-1.11,1.22c-0.48,0.33-1.12,0.57-1.93,0.72v3.42h0.46
			c1.29,0,2.4-0.27,3.33-0.81s1.71-1.25,2.31-2.13c0.61-0.88,1.06-1.89,1.36-3.01C295.7,97.23,295.85,96.08,295.85,94.9L295.85,94.9
			z M285.98,100.86c-0.82-0.17-1.47-0.43-1.95-0.77c-0.48-0.34-0.85-0.77-1.11-1.27c-0.26-0.51-0.42-1.09-0.5-1.75
			c-0.08-0.66-0.12-1.38-0.12-2.17c0-0.72,0.04-1.41,0.13-2.08c0.09-0.67,0.26-1.27,0.53-1.81c0.27-0.54,0.64-0.99,1.12-1.36
			c0.48-0.37,1.11-0.6,1.9-0.68v-0.03v-3.42c-1.34,0.03-2.5,0.3-3.5,0.8c-0.99,0.5-1.82,1.17-2.47,2.01
			c-0.65,0.84-1.14,1.83-1.47,2.96c-0.33,1.13-0.49,2.34-0.49,3.63c0,1.08,0.12,2.13,0.35,3.15c0.23,1.02,0.6,1.95,1.09,2.79
			c0.5,0.84,1.14,1.56,1.93,2.15c0.79,0.59,1.74,0.99,2.85,1.2c0.27,0.05,0.55,0.08,0.82,0.09s0.56,0.01,0.85,0.01L285.98,100.86z"
			/>
		<path class="st0" d="M318.3,89.29v-3.34h-7.12v3.34H318.3L318.3,89.29z M317.63,96.11v-3.24h-6.45v3.24H317.63L317.63,96.11z
			 M318.48,103.98v-3.34h-7.3v3.34H318.48L318.48,103.98z M309.2,103.98V85.95h-4.01v18.03H309.2z"/>
		<path class="st0" d="M335.84,101.35V85.98h-4.06l0.18,8.9L335.84,101.35L335.84,101.35z M335.86,103.98L325.06,86h-3.81
			l10.75,17.97H335.86L335.86,103.98z M325.24,103.98L325.06,95l-3.86-6.51v15.48H325.24z"/>
		<path class="st0" d="M360.78,103.98c-0.29-0.48-0.54-0.96-0.73-1.43c-0.2-0.47-0.35-0.99-0.45-1.56
			c-0.09-0.45-0.16-0.94-0.23-1.49s-0.18-1.09-0.32-1.62c-0.15-0.53-0.36-1.01-0.63-1.44c-0.27-0.43-0.66-0.75-1.16-0.95
			c-0.09-0.03-0.17-0.07-0.26-0.1c-0.09-0.03-0.17-0.07-0.26-0.1c0.5,0,0.94-0.13,1.34-0.4c0.39-0.27,0.73-0.6,1.02-1.02
			c0.28-0.41,0.5-0.86,0.64-1.35s0.22-0.96,0.22-1.4c0-0.93-0.11-1.7-0.33-2.31c-0.22-0.62-0.52-1.12-0.9-1.5
			c-0.38-0.39-0.83-0.67-1.36-0.85s-1.1-0.31-1.7-0.39c-0.6-0.08-1.23-0.11-1.9-0.1c-0.67,0.01-1.34,0-2.01-0.01v3.42h0.1
			c0.31,0,0.62-0.01,0.94-0.03c0.32-0.02,0.64-0.03,0.96-0.03c0.36,0,0.68,0.02,0.96,0.06c0.28,0.04,0.52,0.13,0.71,0.27
			c0.19,0.14,0.33,0.35,0.42,0.63c0.09,0.28,0.14,0.66,0.14,1.14c0,0.6-0.04,1.08-0.12,1.43c-0.08,0.35-0.21,0.62-0.41,0.81
			c-0.2,0.19-0.45,0.31-0.77,0.37c-0.32,0.06-0.72,0.09-1.2,0.09c-0.29,0-0.58,0-0.86-0.01c-0.28-0.01-0.57-0.01-0.86-0.01
			l-0.05,3.24c0.22,0,0.38,0,0.46,0c0.1,0,0.18,0,0.23,0c0.07,0,0.15,0.01,0.23,0.03c0.09,0.02,0.24,0.03,0.46,0.05
			c0.6,0.07,1.05,0.23,1.36,0.48c0.31,0.25,0.53,0.55,0.67,0.91c0.14,0.36,0.23,0.76,0.27,1.21c0.04,0.45,0.11,0.9,0.19,1.36
			c0.09,0.46,0.21,0.91,0.36,1.34c0.15,0.43,0.33,0.85,0.54,1.26H360.78L360.78,103.98z M349.8,103.98V85.95h-4.04v18.03H349.8z"/>
		<path class="st0" d="M376.19,89.29v-3.34h-7.12v3.34H376.19L376.19,89.29z M375.52,96.11v-3.24h-6.45v3.24H375.52L375.52,96.11z
			 M376.37,103.98v-3.34h-7.3v3.34H376.37L376.37,103.98z M367.08,103.98V85.95h-4.01v18.03H367.08z"/>
		<path class="st0" d="M393.49,91.27c-0.05-0.24-0.09-0.49-0.12-0.75c-0.03-0.26-0.07-0.51-0.14-0.75
			c-0.36-1.35-1.04-2.37-2.03-3.03c-0.99-0.67-2.17-1.05-3.52-1.13l-0.36-0.03v3.29c0.46,0.05,0.82,0.13,1.08,0.24
			c0.26,0.11,0.46,0.27,0.6,0.48c0.15,0.21,0.25,0.47,0.31,0.8c0.06,0.33,0.12,0.72,0.17,1.18L393.49,91.27L393.49,91.27z
			 M393.78,98.96c0-0.99-0.15-1.83-0.45-2.49c-0.3-0.67-0.7-1.22-1.2-1.66c-0.5-0.44-1.06-0.78-1.7-1.03
			c-0.63-0.25-1.28-0.45-1.94-0.62c-0.66-0.16-1.31-0.3-1.94-0.41c-0.63-0.11-1.2-0.25-1.7-0.42c-0.5-0.17-0.9-0.39-1.21-0.66
			c-0.31-0.27-0.46-0.63-0.46-1.09c0-0.36,0.06-0.66,0.18-0.89c0.12-0.23,0.28-0.41,0.49-0.54c0.21-0.13,0.44-0.21,0.69-0.26
			c0.26-0.04,0.53-0.06,0.82-0.06v-3.24h-0.15c-0.87,0-1.69,0.1-2.44,0.3c-0.75,0.2-1.41,0.51-1.95,0.94
			c-0.55,0.43-0.98,0.99-1.29,1.68c-0.31,0.69-0.46,1.54-0.46,2.53c0,0.89,0.15,1.63,0.45,2.22c0.3,0.59,0.7,1.08,1.2,1.47
			c0.5,0.39,1.06,0.69,1.7,0.93c0.63,0.23,1.28,0.43,1.94,0.59c0.66,0.16,1.31,0.31,1.94,0.45c0.63,0.14,1.2,0.3,1.7,0.49
			c0.5,0.19,0.9,0.43,1.2,0.73c0.3,0.3,0.45,0.7,0.45,1.2c0,0.36-0.06,0.66-0.19,0.9c-0.13,0.24-0.3,0.43-0.53,0.58
			c-0.22,0.15-0.47,0.25-0.75,0.32c-0.27,0.07-0.56,0.11-0.85,0.13v3.37c0.24-0.02,0.45-0.03,0.63-0.05
			c0.18-0.02,0.35-0.04,0.51-0.06c0.16-0.03,0.33-0.06,0.5-0.1c0.17-0.04,0.38-0.1,0.62-0.17c0.57-0.15,1.11-0.39,1.62-0.71
			c0.51-0.32,0.96-0.69,1.34-1.13c0.38-0.44,0.68-0.93,0.9-1.48C393.66,100.16,393.78,99.58,393.78,98.96L393.78,98.96z
			 M385.37,104.47l-0.03-3.39c-0.57-0.05-1.01-0.13-1.32-0.23c-0.32-0.1-0.56-0.27-0.73-0.49c-0.17-0.22-0.31-0.51-0.41-0.87
			s-0.22-0.82-0.36-1.39l-4.04,0.21c0.05,1.87,0.51,3.3,1.36,4.29c0.86,0.99,2.18,1.59,3.96,1.77c0.27,0.03,0.54,0.06,0.8,0.06
			C384.85,104.44,385.11,104.45,385.37,104.47z"/>
		<rect x="396.66" y="85.98" class="st0" width="4.04" height="18"/>
		<path class="st0" d="M418.59,91.27c-0.05-0.24-0.09-0.49-0.12-0.75c-0.03-0.26-0.07-0.51-0.14-0.75
			c-0.36-1.35-1.04-2.37-2.03-3.03c-0.99-0.67-2.17-1.05-3.52-1.13l-0.36-0.03v3.29c0.46,0.05,0.82,0.13,1.08,0.24
			c0.26,0.11,0.46,0.27,0.6,0.48c0.15,0.21,0.25,0.47,0.31,0.8c0.06,0.33,0.12,0.72,0.17,1.18L418.59,91.27L418.59,91.27z
			 M418.87,98.96c0-0.99-0.15-1.83-0.45-2.49c-0.3-0.67-0.7-1.22-1.2-1.66c-0.5-0.44-1.06-0.78-1.7-1.03
			c-0.63-0.25-1.28-0.45-1.94-0.62c-0.66-0.16-1.31-0.3-1.94-0.41c-0.63-0.11-1.2-0.25-1.7-0.42c-0.5-0.17-0.9-0.39-1.21-0.66
			c-0.31-0.27-0.46-0.63-0.46-1.09c0-0.36,0.06-0.66,0.18-0.89c0.12-0.23,0.28-0.41,0.49-0.54c0.21-0.13,0.44-0.21,0.69-0.26
			c0.26-0.04,0.53-0.06,0.82-0.06v-3.24h-0.15c-0.87,0-1.69,0.1-2.44,0.3c-0.75,0.2-1.41,0.51-1.95,0.94
			c-0.55,0.43-0.98,0.99-1.29,1.68c-0.31,0.69-0.46,1.54-0.46,2.53c0,0.89,0.15,1.63,0.45,2.22c0.3,0.59,0.7,1.08,1.2,1.47
			c0.5,0.39,1.06,0.69,1.7,0.93c0.63,0.23,1.28,0.43,1.94,0.59c0.66,0.16,1.31,0.31,1.94,0.45c0.63,0.14,1.2,0.3,1.7,0.49
			c0.5,0.19,0.9,0.43,1.2,0.73c0.3,0.3,0.45,0.7,0.45,1.2c0,0.36-0.06,0.66-0.19,0.9c-0.13,0.24-0.3,0.43-0.53,0.58
			s-0.47,0.25-0.75,0.32c-0.27,0.07-0.56,0.11-0.85,0.13v3.37c0.24-0.02,0.45-0.03,0.63-0.05c0.18-0.02,0.35-0.04,0.51-0.06
			c0.16-0.03,0.33-0.06,0.5-0.1c0.17-0.04,0.38-0.1,0.62-0.17c0.57-0.15,1.11-0.39,1.62-0.71c0.51-0.32,0.96-0.69,1.34-1.13
			c0.38-0.44,0.68-0.93,0.9-1.48C418.76,100.16,418.87,99.58,418.87,98.96L418.87,98.96z M410.47,104.47l-0.03-3.39
			c-0.57-0.05-1.01-0.13-1.32-0.23c-0.32-0.1-0.56-0.27-0.73-0.49c-0.17-0.22-0.31-0.51-0.41-0.87c-0.1-0.36-0.22-0.82-0.36-1.39
			l-4.04,0.21c0.05,1.87,0.51,3.3,1.36,4.29c0.86,0.99,2.18,1.59,3.96,1.77c0.27,0.03,0.54,0.06,0.8,0.06
			C409.95,104.44,410.21,104.45,410.47,104.47z"/>
		<path class="st0" d="M434.89,89.32v-3.37h-3.93v3.37H434.89L434.89,89.32z M423.76,89.34v-3.39h-3.68v3.39H423.76L423.76,89.34z
			 M429.52,103.98V85.95h-4.09v18.03H429.52z"/>
		<path class="st0" d="M450.27,89.29v-3.34h-7.12v3.34H450.27L450.27,89.29z M449.6,96.11v-3.24h-6.45v3.24H449.6L449.6,96.11z
			 M450.45,103.98v-3.34h-7.3v3.34H450.45L450.45,103.98z M441.17,103.98V85.95h-4.01v18.03H441.17z"/>
		<path class="st0" d="M467.81,101.35V85.98h-4.06l0.18,8.9L467.81,101.35L467.81,101.35z M467.84,103.98L457.04,86h-3.81
			l10.75,17.97H467.84L467.84,103.98z M457.22,103.98L457.04,95l-3.86-6.51v15.48H457.22z"/>
		<path class="st0" d="M487.41,91.48c-0.39-2.01-1.17-3.45-2.31-4.32c-1.15-0.87-2.68-1.36-4.6-1.47v3.32
			c0.86,0.09,1.49,0.36,1.89,0.81c0.4,0.45,0.72,1.11,0.94,1.97L487.41,91.48L487.41,91.48z M487.69,97.98l-4.27-0.28
			c-0.12,0.99-0.39,1.77-0.82,2.31c-0.43,0.55-1.13,0.87-2.11,0.98h0.03v3.39c1.06-0.14,2-0.33,2.8-0.59
			c0.81-0.26,1.5-0.63,2.07-1.12c0.57-0.49,1.05-1.11,1.43-1.86C487.19,100.06,487.48,99.12,487.69,97.98L487.69,97.98z
			 M478.84,104.36v-3.39c-0.77-0.02-1.41-0.21-1.9-0.58c-0.5-0.37-0.89-0.84-1.17-1.4c-0.28-0.57-0.48-1.19-0.58-1.88
			c-0.1-0.69-0.15-1.36-0.15-2.03c0-0.69,0.04-1.38,0.12-2.1c0.08-0.71,0.25-1.35,0.53-1.93c0.27-0.57,0.66-1.05,1.14-1.43
			c0.49-0.38,1.14-0.58,1.97-0.62l0.03-0.03v-3.32c-1.35,0.03-2.54,0.29-3.56,0.77c-1.02,0.48-1.87,1.13-2.55,1.95
			c-0.68,0.82-1.19,1.8-1.53,2.92c-0.34,1.12-0.51,2.34-0.51,3.66c0,1.3,0.18,2.52,0.53,3.65c0.35,1.13,0.87,2.12,1.56,2.96
			c0.69,0.84,1.54,1.51,2.56,2.01C476.33,104.09,477.51,104.35,478.84,104.36z"/>
		<rect x="490.26" y="85.98" class="st0" width="4.04" height="18"/>
		<path class="st0" d="M513.51,103.98l-6.33-18h-4.63l-6.2,18h4.58l3.37-11.49c0.14-0.43,0.25-0.85,0.33-1.27
			c0.09-0.42,0.17-0.84,0.26-1.27c0.14,1.2,0.4,2.37,0.78,3.5c0.39,1.13,0.75,2.27,1.09,3.42l-2.01,0.03l-0.98,3.24h4.01l1.18,3.86
			H513.51z"/>
	</g>
</g>
<g id="Capa_1_1_">
</g>
</svg>
